# Blender 4.0.2
# www.blender.org
mtllib Jewel_05.mtl
o Jewel_05_Circle.002
v 0.000000 1.786627 -1.266332
v -0.953855 1.368636 -1.266332
v -1.461390 0.310245 -1.266332
v -1.285125 -0.893314 -1.266332
v -0.507535 -1.678880 -1.266332
v 0.507536 -1.678880 -1.266332
v 1.285125 -0.893313 -1.266332
v 1.461390 0.310245 -1.266332
v 0.953855 1.368636 -1.266332
v -1.493214 2.594145 -0.675838
v 0.000000 3.386415 -0.675838
v -2.287735 0.588045 -0.675838
v -2.011801 -1.693208 -0.675838
v -0.794522 -3.182189 -0.675838
v 0.794523 -3.182189 -0.675838
v 2.011801 -1.693207 -0.675838
v 2.287735 0.588045 -0.675838
v 1.493213 2.594144 -0.675838
v 0.000000 1.786627 1.266332
v -0.953855 1.368636 1.266332
v -1.461390 0.310244 1.266332
v -1.285125 -0.893314 1.266332
v -0.507535 -1.678880 1.266332
v 0.507536 -1.678880 1.266332
v 1.285125 -0.893313 1.266332
v 1.461390 0.310244 1.266332
v 0.953855 1.368636 1.266332
v -1.493214 2.594145 0.675839
v 0.000000 3.386415 0.675839
v -2.287735 0.588045 0.675839
v -2.011801 -1.693208 0.675838
v -0.794522 -3.182189 0.675838
v 0.794523 -3.182189 0.675838
v 2.011801 -1.693207 0.675838
v 2.287735 0.588045 0.675839
v 1.493213 2.594144 0.675839
v -1.829790 3.196605 -0.000000
v 0.000000 4.172872 -0.000000
v -2.803401 0.724611 -0.000000
v -2.465270 -2.086436 0.000000
v -0.973611 -3.921217 0.000000
v 0.973611 -3.921216 0.000000
v 2.465270 -2.086435 0.000000
v 2.803401 0.724612 -0.000000
v 1.829790 3.196605 -0.000000
vn -0.0000 -0.0000 -1.0000
vn -0.8006 -0.0968 -0.5913
vn -0.0000 -0.3656 -0.9308
vn -0.4898 0.1940 -0.8500
vn 0.1620 0.3696 -0.9150
vn 0.3480 -0.2845 -0.8933
vn -0.5985 -0.0877 -0.7963
vn 0.5813 -0.0703 -0.8106
vn -0.3411 -0.3377 -0.8773
vn -0.1807 0.3406 -0.9227
vn 0.5083 0.2437 -0.8260
vn 0.7997 -0.0962 -0.5926
vn -0.5790 -0.4733 -0.6639
vn -0.3284 0.6156 -0.7164
vn 0.7317 0.2898 -0.6169
vn -0.0000 -0.6749 -0.7380
vn -0.7301 0.2875 -0.6199
vn 0.3280 0.6181 -0.7144
vn 0.5781 -0.4700 -0.6671
vn -0.0000 -0.0000 1.0000
vn -0.8006 -0.0968 0.5913
vn -0.0000 -0.3656 0.9308
vn -0.5083 0.2437 0.8260
vn 0.1620 0.3696 0.9150
vn 0.3411 -0.3377 0.8773
vn -0.5985 -0.0877 0.7963
vn 0.5985 -0.0877 0.7963
vn -0.3411 -0.3377 0.8773
vn -0.1620 0.3696 0.9150
vn 0.5083 0.2437 0.8260
vn 0.8006 -0.0968 0.5913
vn -0.5790 -0.4733 0.6639
vn -0.3280 0.6181 0.7144
vn 0.7317 0.2898 0.6169
vn -0.0000 -0.6749 0.7380
vn -0.7318 0.2898 0.6169
vn 0.3280 0.6181 0.7144
vn 0.5790 -0.4733 0.6639
vn -0.7997 -0.0962 -0.5926
vn -0.5083 0.2437 -0.8260
vn 0.1807 0.3406 -0.9227
vn 0.3411 -0.3377 -0.8773
vn -0.5813 -0.0703 -0.8106
vn 0.5985 -0.0877 -0.7963
vn -0.3480 -0.2845 -0.8933
vn -0.1620 0.3696 -0.9150
vn 0.4898 0.1940 -0.8500
vn 0.8006 -0.0968 -0.5913
vn -0.5781 -0.4700 -0.6671
vn -0.3280 0.6181 -0.7144
vn 0.7301 0.2875 -0.6199
vn -0.7317 0.2898 -0.6169
vn 0.3284 0.6156 -0.7164
vn 0.5790 -0.4733 -0.6639
vn -0.7997 -0.0962 0.5926
vn -0.4898 0.1940 0.8500
vn 0.1807 0.3406 0.9227
vn 0.3480 -0.2845 0.8933
vn -0.5813 -0.0703 0.8106
vn 0.5813 -0.0703 0.8106
vn -0.3480 -0.2845 0.8933
vn -0.1807 0.3406 0.9227
vn 0.4898 0.1940 0.8500
vn 0.7997 -0.0962 0.5926
vn -0.5781 -0.4700 0.6671
vn -0.3284 0.6156 0.7164
vn 0.7301 0.2875 0.6199
vn -0.7301 0.2875 0.6199
vn 0.3284 0.6156 0.7164
vn 0.5781 -0.4700 0.6671
vt 0.000000 0.000000
s 0
usemtl Purple_jewel05
f 4/1/1 3/1/1 8/1/1
f 13/1/2 39/1/2 12/1/2
f 5/1/3 15/1/3 14/1/3
f 2/1/4 12/1/4 10/1/4
f 1/1/5 18/1/5 9/1/5
f 6/1/6 16/1/6 15/1/6
f 4/1/7 12/1/7 3/1/7
f 7/1/8 17/1/8 16/1/8
f 5/1/9 13/1/9 4/1/9
f 1/1/10 10/1/10 11/1/10
f 9/1/11 17/1/11 8/1/11
f 16/1/12 44/1/12 43/1/12
f 14/1/13 40/1/13 13/1/13
f 11/1/14 37/1/14 38/1/14
f 18/1/15 44/1/15 17/1/15
f 15/1/16 41/1/16 14/1/16
f 10/1/17 39/1/17 37/1/17
f 11/1/18 45/1/18 18/1/18
f 15/1/19 43/1/19 42/1/19
f 26/1/20 27/1/20 21/1/20
f 39/1/21 31/1/21 30/1/21
f 23/1/22 33/1/22 24/1/22
f 20/1/23 30/1/23 21/1/23
f 36/1/24 19/1/24 27/1/24
f 24/1/25 34/1/25 25/1/25
f 30/1/26 22/1/26 21/1/26
f 25/1/27 35/1/27 26/1/27
f 31/1/28 23/1/28 22/1/28
f 19/1/29 28/1/29 20/1/29
f 35/1/30 27/1/30 26/1/30
f 34/1/31 44/1/31 35/1/31
f 40/1/32 32/1/32 31/1/32
f 29/1/33 37/1/33 28/1/33
f 44/1/34 36/1/34 35/1/34
f 41/1/35 33/1/35 32/1/35
f 28/1/36 39/1/36 30/1/36
f 45/1/37 29/1/37 36/1/37
f 33/1/38 43/1/38 34/1/38
f 3/1/1 2/1/1 8/1/1
f 2/1/1 1/1/1 9/1/1
f 8/1/1 2/1/1 9/1/1
f 8/1/1 7/1/1 4/1/1
f 7/1/1 6/1/1 4/1/1
f 6/1/1 5/1/1 4/1/1
f 13/1/39 40/1/39 39/1/39
f 5/1/3 6/1/3 15/1/3
f 2/1/40 3/1/40 12/1/40
f 1/1/41 11/1/41 18/1/41
f 6/1/42 7/1/42 16/1/42
f 4/1/43 13/1/43 12/1/43
f 7/1/44 8/1/44 17/1/44
f 5/1/45 14/1/45 13/1/45
f 1/1/46 2/1/46 10/1/46
f 9/1/47 18/1/47 17/1/47
f 16/1/48 17/1/48 44/1/48
f 14/1/49 41/1/49 40/1/49
f 11/1/50 10/1/50 37/1/50
f 18/1/51 45/1/51 44/1/51
f 15/1/16 42/1/16 41/1/16
f 10/1/52 12/1/52 39/1/52
f 11/1/53 38/1/53 45/1/53
f 15/1/54 16/1/54 43/1/54
f 19/1/20 20/1/20 27/1/20
f 20/1/20 21/1/20 27/1/20
f 21/1/20 22/1/20 25/1/20
f 22/1/20 23/1/20 25/1/20
f 23/1/20 24/1/20 25/1/20
f 25/1/20 26/1/20 21/1/20
f 39/1/55 40/1/55 31/1/55
f 23/1/22 32/1/22 33/1/22
f 20/1/56 28/1/56 30/1/56
f 36/1/57 29/1/57 19/1/57
f 24/1/58 33/1/58 34/1/58
f 30/1/59 31/1/59 22/1/59
f 25/1/60 34/1/60 35/1/60
f 31/1/61 32/1/61 23/1/61
f 19/1/62 29/1/62 28/1/62
f 35/1/63 36/1/63 27/1/63
f 34/1/64 43/1/64 44/1/64
f 40/1/65 41/1/65 32/1/65
f 29/1/66 38/1/66 37/1/66
f 44/1/67 45/1/67 36/1/67
f 41/1/35 42/1/35 33/1/35
f 28/1/68 37/1/68 39/1/68
f 45/1/69 38/1/69 29/1/69
f 33/1/70 42/1/70 43/1/70
