<svg
   width="64px"
   height="64px"
   viewBox="0 0 7.2770753 7.2770801"
   version="1.1"
   id="svg1"
   xml:space="preserve"
   xmlns="http://www.w3.org/2000/svg"
   xmlns:svg="http://www.w3.org/2000/svg"><g
     id="layer1"
     transform="translate(-43.302783,-131.28914)"><path
       id="path1"
       style="color:#000000;fill:#ffffff;stroke-miterlimit:3;-inkscape-stroke:none"
       d="m 46.941321,131.28914 c -2.006851,0 -3.638538,1.63169 -3.638538,3.63854 0,2.00686 1.631687,3.63854 3.638538,3.63854 2.006851,0 3.638537,-1.63168 3.638537,-3.63854 0,-2.00685 -1.631686,-3.63854 -3.638537,-3.63854 z m 0,0.44907 c 1.763653,0 3.187402,1.42582 3.187402,3.18947 0,1.76366 -1.423749,3.1874 -3.187402,3.1874 -1.763653,0 -3.18947,-1.42374 -3.18947,-3.1874 0,-1.76365 1.425817,-3.18947 3.18947,-3.18947 z m -0.888318,1.65158 v 1.53737 1.5379 l 1.331702,-0.76895 1.332218,-0.76895 -1.332218,-0.76894 z" /></g></svg>
